<svg aria-hidden="true" style="width:0;height:0;position:absolute;overflow:hidden" xmlns="http://www.w3.org/2000/svg"><defs><symbol id="github" viewBox="0 0 32 32"><path d="M16 0C7.164 0 0 7.164 0 16c0 8.837 7.164 16 16 16s16-7.163 16-16c0-8.836-7.164-16-16-16zm4.482 28.189c-.092-1.252-.195-2.803-.201-3.431-.04-.482-.092-1.708-1.256-2.491 4.621-.387 6.82-2.941 6.978-6.316.132-1.922-.632-3.612-1.989-4.976a27.326 27.326 0 0 0-.138-3.948c-1.042-.3-3.472.983-4.151 1.532-1.432-.556-4.937-.751-7.067 0-1.51-1.062-3.229-1.718-4.166-1.535-.865 1.917-.309 3.729-.14 3.945-1.114 1.018-2.668 2.271-2.246 4.896.677 3.849 3.385 5.925 7.745 6.433-.93.19-1.087.884-1.165 1.185-2.928 1.208-3.765-.746-4.135-1.255-1.229-1.521-2.332-1.08-2.4-1.056-.066.024-.116.12-.109.166.062.328.731.661.764.688.907.676 1.243 1.897 1.45 2.245 1.301 2.139 4.325 1.252 4.354 1.27.002.187-.021 1.761-.039 2.986C7.057 27.021 3 21.991 3 16 3 8.82 8.82 3 16 3s13 5.82 13 13c0 5.603-3.55 10.362-8.518 12.189z"/></symbol><symbol id="modal-close" viewBox="0 0 32 32"><path fill="#2899c0" style="fill:var(--color1,#2899c0)" d="M32 28.949A3.051 3.051 0 0 1 28.949 32H3.051A3.051 3.051 0 0 1 0 28.949V3.051A3.051 3.051 0 0 1 3.051 0h25.898A3.051 3.051 0 0 1 32 3.051v25.898z"/><path style="fill:var(--color2,#000)" opacity=".2" d="m23.699 9.819-13.88 13.88L18.12 32h10.829A3.051 3.051 0 0 0 32 28.949V18.12l-8.301-8.301z"/><path fill="#fff" style="fill:var(--color3,#fff)" d="M23.699 20.788a.983.983 0 0 1 0 1.394l-1.517 1.517a.983.983 0 0 1-1.394 0L8.302 11.211a.983.983 0 0 1 0-1.394L9.819 8.3a.983.983 0 0 1 1.394 0l12.486 12.488z"/><path fill="#fff" style="fill:var(--color3,#fff)" d="M20.788 8.301a.983.983 0 0 1 1.394 0l1.517 1.517a.983.983 0 0 1 0 1.394L11.211 23.698a.983.983 0 0 1-1.394 0L8.3 22.181a.983.983 0 0 1 0-1.394L20.788 8.301z"/></symbol></defs></svg>