<svg aria-hidden="true" style="width:0;height:0;position:absolute;overflow:hidden" xmlns="http://www.w3.org/2000/svg"><defs><symbol id="icon-close" viewBox="0 0 32 32"><path stroke-linejoin="round" stroke-linecap="round" stroke-width="1.333" d="M23 23 9 9m14 0L9 23"/></symbol><symbol id="icon-day" viewBox="0 0 80 32"><path style="fill:var(--color1,#000)" d="M16 0h48c8.837 0 16 7.163 16 16s-7.163 16-16 16H16C7.163 32 0 24.837 0 16S7.163 0 16 0z"/><path fill="#fff" style="fill:var(--color2,#fff)" d="M24.469 7.531c-4.696-4.695-12.293-4.709-16.971-.032S2.835 19.774 7.53 24.47c4.696 4.695 12.293 4.709 16.971.032s4.663-12.275-.032-16.971z"/><path fill="none" stroke="#000" style="stroke:var(--color1,#000)" stroke-linecap="round" stroke-width="1.6" d="M9.097 8.765c-3.84 4.103-3.825 10.769.032 14.891"/><path fill="none" stroke="#fff" style="stroke:var(--color2,#fff)" stroke-linejoin="round" stroke-linecap="round" stroke-width="1.333" d="M65.333 22.667a6.667 6.667 0 0 0 0-13.334v0a6.667 6.667 0 0 0 0 13.334v0z"/><path fill="none" stroke="#fff" style="stroke:var(--color2,#fff)" stroke-linejoin="round" stroke-linecap="round" stroke-width="2" d="m71.876 9.457.121-.121M58.669 22.664l.121-.121m6.543-15.802v-.075m0 18.667v-.075M56.075 16H56m18.667 0h-.075M58.791 9.457l-.121-.121m13.327 13.328-.121-.121"/></symbol><symbol id="icon-down" viewBox="0 0 32 32"><path stroke-linejoin="round" stroke-linecap="round" stroke-width="2" d="M5.876 10.938 16 21.06l10.126-10.124"/></symbol><symbol id="icon-heard" viewBox="0 0 34 32"><path d="m17.231 31.705-2.412-2.412C5.859 21.367.001 16.025.001 9.478.001 4.136 4.136.001 9.478.001c2.929 0 5.858 1.378 7.754 3.618 1.895-2.24 4.825-3.618 7.754-3.618 5.342 0 9.477 4.135 9.477 9.477 0 6.548-5.858 11.889-14.818 19.815l-2.412 2.412z"/></symbol><symbol id="icon-search" viewBox="0 0 32 32"><path stroke-linejoin="round" stroke-linecap="round" stroke-width="2.08" d="m14.667 25.333.131.001c5.891 0 10.667-4.776 10.667-10.667S20.689 4 14.798 4l-.138.001h.007C8.832 4.075 4.13 8.822 4.13 14.667S8.832 25.26 14.66 25.333h.007zM28 28l-5.8-5.8"/></symbol><symbol id="icon-up" viewBox="0 0 32 32"><path stroke-linejoin="round" stroke-linecap="round" stroke-width="2" d="M5.876 21.062 16 10.94l10.126 10.124"/></symbol><symbol id="icon-moon" viewBox="0 0 32 32"><path fill="none" stroke="#fff" style="stroke:var(--color1,#fff)" stroke-linejoin="round" stroke-linecap="round" stroke-width="2.909" d="M2.764 16.96c.518 7.302 6.775 13.245 14.263 13.571a15.08 15.08 0 0 0 12.816-6.015l.028-.039c1.172-1.574.544-2.624-1.417-2.269-.96.172-1.949.241-2.979.198-7.002-.282-12.73-6.08-12.756-12.931V9.37c0-1.833.394-3.574 1.103-5.143l-.032.079c.771-1.76-.157-2.595-1.949-1.844-5.667 2.365-9.548 8.023-9.073 14.502z"/></symbol><symbol id="icon-sun" viewBox="0 0 32 32"><path fill="none" stroke="#fff" style="stroke:var(--color1,#fff)" stroke-linejoin="round" stroke-linecap="round" stroke-width="2.327" d="M16.688 22.873c4.735 0 8.574-3.73 8.574-8.331s-3.839-8.33-8.574-8.33-8.574 3.729-8.574 8.33 3.839 8.331 8.574 8.331z"/><path fill="none" stroke="#fff" style="stroke:var(--color1,#fff)" stroke-linejoin="round" stroke-linecap="round" stroke-width="2.909" d="m26.135 5.372.175-.17M7.069 23.896l.175-.17M16.69 1.563v-.105m0 26.182v-.105M3.324 14.549h-.108m26.947 0h-.108M7.245 5.372l-.175-.17m19.24 18.694-.175-.17"/></symbol><symbol id="icon-search" viewBox="0 0 32 32"><path stroke-linejoin="round" stroke-linecap="round" stroke-width="2.311" d="M14.667 25.333c5.891 0 10.667-4.776 10.667-10.667S20.558 3.999 14.667 3.999 4 8.775 4 14.666s4.776 10.667 10.667 10.667zM28.001 28l-5.8-5.8"/></symbol></defs></svg>